<svg width="79" height="79" viewBox="0 0 79 79" fill="none" xmlns="http://www.w3.org/2000/svg">
<path d="M29.4605 17.1167H17.1167L0.822998 41.8042V60.4021H7.90008C8.723 65.5042 13.1667 69.6188 18.598 69.6188C24.0292 69.6188 28.473 65.6688 29.2959 60.4021H47.5647C48.3876 65.5042 52.8313 69.6188 58.2626 69.6188C63.6938 69.6188 68.1376 65.6688 68.9605 60.4021H78.3417V9.54584H29.6251L29.4605 17.1167ZM18.9272 20.4083H29.4605V40.6521H5.43133L18.9272 20.4083ZM18.598 66.1625C14.4834 66.1625 11.0272 62.7063 11.0272 58.5917C11.0272 54.4771 14.4834 51.0208 18.598 51.0208C22.7126 51.0208 26.1688 54.3125 26.1688 58.5917C26.1688 62.8708 22.7126 66.1625 18.598 66.1625ZM58.098 66.1625C53.9834 66.1625 50.5272 62.7063 50.5272 58.5917C50.5272 54.4771 53.9834 51.0208 58.098 51.0208C62.2126 51.0208 65.6688 54.3125 65.6688 58.5917C65.6688 62.8708 62.2126 66.1625 58.098 66.1625ZM74.8855 12.8375V57.1104H68.7959C67.973 52.0083 63.5292 47.8938 58.098 47.8938C52.6667 47.8938 48.223 51.8438 47.4001 57.1104H29.1313C28.3084 52.0083 23.8647 47.8938 18.4334 47.8938C13.0022 47.8938 8.55841 51.8438 7.7355 57.1104H4.11466V44.1083H32.7522V18.9271L32.9167 12.8375H74.8855Z" fill="#00AFF0"/>
<path d="M51.5146 36.5375H54.8063V30.4479H60.7313V27.1563H54.8063V21.0667H51.5146V27.1563H45.425V30.4479H51.5146V36.5375Z" fill="#00AFF0"/>
</svg>
