<svg width="323" height="292" viewBox="0 0 323 292" fill="none" xmlns="http://www.w3.org/2000/svg">
<ellipse cx="161.5" cy="265.5" rx="161.5" ry="26.5" fill="#DDF3FC"/>
<path d="M182.937 168.573H202.767C201.664 167.778 200.628 166.985 199.676 166.207C191.235 159.342 186.941 152.534 185.828 150.614C184.414 148.101 184.074 145.26 184.833 142.548C185.592 139.837 187.361 137.587 189.815 136.209C191.388 135.323 193.174 134.855 194.973 134.855C198.766 134.855 202.282 136.903 204.149 140.203C204.226 140.334 204.323 140.481 204.457 140.685C204.759 141.145 205.276 141.889 206.012 142.831C207.379 144.57 209.692 147.198 212.958 149.849C215.101 151.571 217.323 153.072 219.638 154.358C216.898 149.685 214.412 145.208 212.159 141.302C207.553 131.411 196.328 124.546 188.074 128.764C179.822 132.98 173.199 145.227 179.335 160.343C180.534 163.264 181.729 165.982 182.937 168.572L182.937 168.573Z" fill="#EB4A76"/>
<path d="M280.032 242.632C280.032 248.987 276.883 254.71 271.946 258.176C274.359 261.644 278.369 263.833 282.748 263.835C283.408 263.835 284.079 263.784 284.753 263.682C291.942 262.581 296.879 255.863 295.78 248.672L286.648 188.977C285.874 183.92 282.313 179.937 277.685 178.445C279.179 181.158 280.034 184.27 280.034 187.579L280.032 242.632Z" fill="#EB4A76"/>
<path d="M142.145 208.616C163.936 191.987 183.288 177.234 208.94 172.519C207.87 171.915 206.856 171.3 205.882 170.679H176.62L161.895 97.0684C160.066 87.919 152.191 81.7852 144.308 83.3579L124.326 87.3604C116.442 88.935 111.535 97.631 113.364 106.78L134.343 211.652V214.546C136.988 212.551 139.588 210.568 142.145 208.616L142.145 208.616Z" fill="#00AFF0"/>
<path d="M265.238 178.307C257.65 180.227 250.205 181.201 243.115 181.201H242.96C234.188 181.201 226.568 179.715 220.051 177.489C190.714 179.528 169.819 195.455 145.88 213.712C142.138 216.567 138.3 219.485 134.341 222.431V242.628C134.341 250.898 140.288 257.766 148.136 259.224V265.841H175.165V259.52H237.103V265.841H264.131V259.224C271.98 257.766 277.925 250.898 277.925 242.628V187.568C277.925 182.087 275.304 177.229 271.257 174.143C269.859 176.138 267.777 177.664 265.236 178.306L265.238 178.307Z" fill="#00AFF0"/>
<path d="M214.334 93.3772C218.095 105.914 210.983 119.124 198.445 122.887C185.908 126.647 172.697 119.535 168.935 107.001C165.175 94.4646 172.288 81.253 184.825 77.4917C197.361 73.7305 210.573 80.8429 214.334 93.3772Z" fill="#EB4A76"/>
<path d="M34.1206 29.3162H51.8543V125.184H25.7814V182.598H51.8543V244.444C33.2009 245.275 27.5972 253.165 27.169 254.048L26.7291 254.794V258.932C24.7864 259.99 23.4685 262.049 23.4685 264.415C23.4685 267.863 26.2627 270.657 29.7102 270.657C33.1576 270.657 35.9518 267.865 35.9518 264.415C35.9518 262.199 34.7926 260.258 33.05 259.149V256.789C34.4433 255.336 39.2182 251.479 51.8562 250.802V259.606C50.4741 260.75 49.5925 262.48 49.5925 264.415C49.5925 267.862 52.3866 270.657 55.8341 270.657C59.2816 270.657 62.0719 267.864 62.0719 264.415C62.0719 262.223 60.9391 260.297 59.2305 259.185V250.797C66.9052 251.218 71.6592 252.872 74.4818 254.383C76.1149 255.257 77.1155 256.089 77.6838 256.646C77.7291 256.692 77.7725 256.735 77.8141 256.777V259.297C76.1961 260.424 75.1369 262.297 75.1369 264.417C75.1369 267.865 77.9311 270.659 81.3785 270.659C84.8241 270.659 87.6202 267.867 87.6202 264.417C87.6202 261.963 86.1985 259.845 84.1369 258.825V254.794L83.697 254.049C83.2684 253.169 77.712 245.336 59.2345 244.452V182.601H73.2509C73.6417 192.923 76.2641 204.806 81.2465 214.489C86.6332 224.977 94.9497 233.018 106.285 233.026C112.561 233.026 119.618 230.553 127.451 224.891C158.818 202.199 181.434 179.741 215.581 175.78C214.348 175.255 213.151 174.713 212.012 174.147C178.88 179.237 156.382 201.4 126.213 223.185C118.621 228.67 111.987 230.924 106.281 230.922C96.0615 230.93 88.3626 223.685 83.1176 213.526C78.324 204.228 75.7411 192.609 75.3559 182.603H85.3075V125.189H75.4182C76.5944 117.061 77.0041 109.679 77.0041 103.426C77.0041 94.5661 76.2055 87.9581 75.6957 84.6294H77.5818C78.7939 84.6294 79.7776 83.6457 79.7776 82.4337C79.7776 81.6596 79.3735 80.9818 78.7656 80.591C78.4238 80.3701 78.0179 80.2398 77.5818 80.2398H76.7926L76.7851 78.4859H86.2437C88.5716 78.4859 90.4578 76.5998 90.4578 74.2719V40.56C90.4578 38.2321 88.5717 36.346 86.2437 36.346H79.1017C79.2395 35.6795 79.332 34.9696 79.4 34.239C79.4585 33.599 79.5019 32.9438 79.5095 32.2642C79.5076 31.154 79.4113 30.1005 79.2527 29.0999C84.8467 28.0294 89.0758 23.1168 89.0758 17.2091C89.0758 16.335 88.3697 15.627 87.4974 15.627C86.6233 15.627 85.9191 16.335 85.9191 17.2091C85.9097 21.644 82.6869 25.3087 78.4561 26.0259C78.3994 25.8825 78.3579 25.722 78.2994 25.5842C77.9048 24.6779 77.4252 23.885 76.7815 23.2487C76.1509 22.62 75.2654 22.1235 74.2421 22.1235C73.2169 22.1216 72.3315 22.6219 71.699 23.2487C70.957 24.0171 70.3869 25.0102 69.9583 26.1619L59.2251 26.1638V3.68723C59.2251 1.65012 57.5731 0 55.5378 0C53.5007 0 51.8506 1.65012 51.8506 3.68723V26.1618H34.1169C29.1706 26.1543 25.1716 22.1536 25.1605 17.2073C25.1605 16.3331 24.4544 15.6252 23.5821 15.6252C22.708 15.627 22 16.3351 22 17.2073C22 23.8984 27.4244 29.3223 34.1169 29.3223L34.1206 29.3162ZM32.7179 154.067H53.4366V156.752H32.7179V154.067ZM32.7179 159.089H53.4366V161.774L32.7179 161.776V159.089ZM32.7179 166.798V164.113H53.4366V166.798H32.7179ZM77.9276 132.559V149.415H32.8914V132.559H77.9276ZM86.5312 45.6478V54.2514C86.5312 55.4144 85.5891 56.3584 84.4242 56.3584H64.0565C62.8935 56.3584 61.9494 55.4145 61.9494 54.2514V45.6478C61.9494 44.4829 62.8934 43.5408 64.0565 43.5408H84.4242C85.5891 43.5408 86.5312 44.4847 86.5312 45.6478ZM75.8488 36.3418H72.6411C72.4712 35.7094 72.3334 34.9995 72.2446 34.2348C72.171 33.6042 72.1257 32.9453 72.1333 32.26C72.1314 31.2122 72.2239 30.2153 72.3825 29.3186H76.0942C76.2585 30.2191 76.3623 31.2103 76.3472 32.26C76.3491 32.9454 76.3057 33.6062 76.2358 34.2348C76.149 34.9995 76.0168 35.7094 75.8488 36.3418H75.8488ZM73.9117 25.4989C74.1628 25.2611 74.2421 25.2837 74.2421 25.278C74.2421 25.2799 74.3195 25.2611 74.5687 25.4989C74.7255 25.633 74.8916 25.8728 75.0558 26.1579H73.4284C73.6002 25.8652 73.7701 25.6349 73.9117 25.4989H73.9117ZM69.188 29.3183C69.0577 30.2491 68.9841 31.2308 68.9728 32.2598C68.9747 32.9375 69.0105 33.5965 69.0691 34.2346C69.137 34.9728 69.2541 35.6695 69.3976 36.3416H62.2347C59.9068 36.3416 58.0207 38.2277 58.0207 40.5556V74.2675C58.0207 76.5954 59.9068 78.4815 62.2347 78.4815H71.6934V80.2373H70.9042C70.4662 80.2373 70.0621 80.3695 69.7204 80.5885C69.1144 80.9793 68.7104 81.6571 68.7104 82.4312C68.7104 83.6432 69.6921 84.6269 70.9042 84.6269H73.5588C73.7022 85.5312 73.8722 86.7225 74.0477 88.2122C74.4706 91.8126 74.8954 97.0179 74.8954 103.424C74.8954 109.664 74.4839 117.051 73.2888 125.187H59.2289V79.8256C57.2559 78.7551 55.9154 76.665 55.9154 74.2654V40.5535C55.9154 38.1558 57.2578 36.0657 59.2289 34.9933V29.3143L69.188 29.3183Z" fill="#00AFF0"/>
<path d="M211.627 151.487C208.314 148.799 205.896 146.101 204.353 144.135C203.582 143.156 203.029 142.359 202.693 141.847C202.523 141.59 202.408 141.405 202.35 141.303C202.335 141.279 202.321 141.26 202.314 141.245C200.027 137.203 194.896 135.77 190.846 138.05C186.789 140.331 185.348 145.468 187.631 149.525C187.988 150.137 192.062 157.302 201.011 164.579C209.888 171.829 223.929 179.097 242.958 179.099H243.087C249.73 179.101 256.948 178.233 264.717 176.267C269.23 175.129 271.963 170.547 270.823 166.032C269.683 161.52 265.099 158.786 260.586 159.926C254.071 161.573 248.266 162.243 243.087 162.243C228.283 162.211 218.312 156.858 211.627 151.487L211.627 151.487Z" fill="#EB4A76"/>
</svg>
