<svg width="93" height="93" viewBox="0 0 93 93" fill="none" xmlns="http://www.w3.org/2000/svg">
<rect width="93" height="93" rx="8" fill="#EFFBFF"/>
<path d="M74.7392 27.4907C74.294 27.9404 73.7785 28.3145 73.2129 28.5983L64.4088 19.7942C64.6926 19.2286 65.0667 18.7131 65.5164 18.2679C66.0917 17.6927 65.2225 16.822 64.6463 17.3978C61.7072 20.337 62.4001 24.15 63.3633 27.9271C59.5862 26.9638 55.7734 26.2708 52.8344 29.2098C50.4841 31.5601 50.47 34.5242 51.0354 37.4854C50.3364 37.123 49.5971 36.844 48.8329 36.6543C48.6407 34.8608 48.4523 32.7195 48.257 30.9187C48.2428 30.7457 48.2918 30.5733 48.3949 30.4336C48.6239 30.105 48.7638 29.7227 48.8009 29.3239C48.8381 28.9251 48.7712 28.5236 48.6069 28.1583C48.4425 27.7931 48.1863 27.4767 47.8632 27.2401C47.5402 27.0034 47.1612 26.8545 46.7635 26.808C44.814 26.59 43.4517 28.7866 44.6067 30.4327C44.7101 30.5728 44.7593 30.7455 44.7452 30.9189C44.5498 32.7212 44.3632 34.8431 44.1716 36.6336C43.115 36.8867 42.1064 37.3091 41.1848 37.8845C39.7828 36.7537 38.1394 35.3762 36.7312 34.2435C36.5987 34.1312 36.5115 33.9747 36.4856 33.803C36.4152 33.4088 36.2437 33.0395 35.988 32.7313C35.7323 32.423 35.4011 32.1864 35.0267 32.0443C34.6522 31.9023 34.2473 31.8597 33.8516 31.9208C33.4558 31.9819 33.0826 32.1446 32.7684 32.3929C31.2357 33.6172 31.8257 36.1337 33.8064 36.481C33.9785 36.507 34.1354 36.5943 34.2482 36.7269C35.3838 38.1388 36.7515 39.7702 37.8817 41.1713C37.2982 42.0963 36.8705 43.1107 36.6157 44.1742C34.833 44.3645 32.7152 44.5511 30.9322 44.7445C30.7591 44.7587 30.5867 44.7098 30.447 44.6066C30.1184 44.3776 29.7361 44.2378 29.3373 44.2006C28.9386 44.1635 28.537 44.2303 28.1718 44.3947C27.8065 44.559 27.4902 44.8152 27.2535 45.1383C27.0168 45.4614 26.8679 45.8403 26.8214 46.2381C26.6034 48.1876 28.8 49.5498 30.4462 48.3948C30.5862 48.2914 30.7589 48.2423 30.9323 48.2563C32.7309 48.4514 34.848 48.6375 36.6362 48.8288C36.8242 49.5928 37.1014 50.3321 37.4619 51.0315C34.5084 50.4706 31.5536 50.4907 29.2093 52.835C26.2698 55.7745 26.9631 59.588 27.9265 63.3654C24.1492 62.402 20.3359 61.7086 17.3963 64.6478C16.8211 65.223 17.6903 66.0937 18.2664 65.5179C18.7123 65.0675 19.2288 64.6928 19.7955 64.4089L28.5983 73.2117C28.3143 73.7783 27.9397 74.2948 27.4892 74.7407C26.9071 75.3229 27.7908 76.1791 28.3593 75.6108C31.2985 72.6716 30.6056 68.8586 29.6424 65.0815C31.3831 65.5255 33.1313 65.9122 34.7983 65.9122C36.7482 65.9121 38.5869 65.3832 40.1713 63.7988C42.5883 61.3818 42.5073 58.3007 41.9653 55.4959C42.6689 55.8509 43.4118 56.1218 44.1787 56.303C44.3721 58.1028 44.5615 60.2583 44.7579 62.0695C44.7722 62.2425 44.7232 62.4149 44.6201 62.5546C44.3911 62.8832 44.2512 63.2655 44.2141 63.6643C44.177 64.063 44.2438 64.4646 44.4082 64.8298C44.5725 65.195 44.8287 65.5114 45.1518 65.748C45.4748 65.9847 45.8537 66.1336 46.2515 66.1801C48.201 66.3981 49.5633 64.2015 48.4082 62.5554C48.3049 62.4154 48.2557 62.2427 48.2697 62.0692C48.4679 60.2417 48.657 58.0863 48.8514 56.2803C49.8809 56.026 50.8637 55.6109 51.7638 55.0502C53.1802 56.191 54.8531 57.5939 56.2838 58.7446C56.4162 58.8569 56.5035 59.0134 56.5294 59.1851C56.5998 59.5794 56.7712 59.9486 57.0269 60.2569C57.2826 60.5651 57.6138 60.8018 57.9883 60.9438C58.3628 61.0859 58.7677 61.1284 59.1635 61.0673C59.5593 61.0062 59.9325 60.8436 60.2467 60.5952C61.7793 59.3709 61.1894 56.8544 59.2086 56.5071C59.0365 56.4812 58.8796 56.3938 58.7669 56.2612C57.6115 54.8248 56.2164 53.1616 55.0751 51.7444C55.6392 50.8425 56.0561 49.8565 56.3101 48.8235C58.1111 48.6299 60.2695 48.4403 62.0828 48.2436C62.2559 48.2293 62.4283 48.2783 62.568 48.3815C62.8966 48.6104 63.2789 48.7503 63.6776 48.7875C64.0764 48.8246 64.478 48.7578 64.8432 48.5934C65.2084 48.4291 65.5248 48.1729 65.7615 47.8498C65.9982 47.5267 66.147 47.1478 66.1936 46.75C66.4116 44.8005 64.215 43.4383 62.5688 44.5933C62.4288 44.6966 62.2561 44.7458 62.0826 44.7318C60.2634 44.5345 58.1189 44.3462 56.3179 44.1527C56.1336 43.3956 55.8607 42.6628 55.5048 41.9695C56.452 42.1634 57.4153 42.2672 58.382 42.2795C60.2994 42.2795 62.1961 41.7739 63.7964 40.1736C66.7359 37.2341 66.0426 33.4206 65.0792 29.6431C68.8565 30.6066 72.67 31.3 75.6093 28.3607C76.1845 27.7855 75.3153 26.9148 74.7392 27.4907ZM64.0082 25.1946L67.8121 28.9985C66.8106 28.8172 65.7769 28.5554 64.7253 28.281C64.451 27.2296 64.1893 26.1959 64.0082 25.1946V25.1946ZM63.7171 29.2893C63.9914 30.3407 64.2532 31.3744 64.4344 32.3758L60.6306 28.572C61.6319 28.7531 62.6657 29.0149 63.7171 29.2892V29.2893ZM58.6566 28.3382L64.6683 34.3499C64.7076 35.0699 64.6491 35.792 64.4941 36.4963L56.5105 28.5127C57.2147 28.3576 57.9366 28.2989 58.6566 28.3382V28.3382ZM58.7058 36.7825L61.9912 40.068C61.4377 40.4321 60.8251 40.6973 60.1808 40.8518L57.5411 38.2121C57.9432 37.7223 58.3368 37.2406 58.7058 36.7825V36.7825ZM58.9864 35.2602C58.5205 35.3374 58.0985 35.5814 57.7992 35.9467C56.7329 37.2724 55.4404 38.8169 54.338 40.1777C53.8848 39.6184 53.375 39.1074 52.8169 38.6528C54.173 37.554 55.721 36.2591 57.0458 35.1935C57.4111 34.8939 57.6551 34.4718 57.7324 34.0057C57.7669 33.8108 57.8542 33.629 57.9848 33.4802C58.1154 33.3315 58.2844 33.2213 58.4732 33.1619C58.662 33.1024 58.8636 33.0959 59.0559 33.143C59.2482 33.1901 59.4238 33.2891 59.5638 33.4291C59.7038 33.5691 59.8027 33.7449 59.8497 33.9372C59.8967 34.1295 59.8901 34.331 59.8306 34.5198C59.771 34.7086 59.6609 34.8775 59.512 35.0081C59.3632 35.1386 59.1814 35.2258 58.9864 35.2602H58.9864ZM51.9606 34.3718L53.8257 36.2369C53.3049 36.6656 52.7878 37.0907 52.2917 37.4944C52.0669 36.4688 51.9559 35.4216 51.9606 34.3718V34.3718ZM56.2101 34.2869C55.7507 34.6569 55.2693 35.0503 54.7805 35.4516L52.1533 32.8244C52.3058 32.1794 52.5713 31.5666 52.9374 31.0142L56.2101 34.2869ZM56.7581 33.0948L53.7244 30.061C54.1648 29.6198 54.6732 29.2523 55.2302 28.9726L58.2188 31.9612C57.9096 32.0373 57.6197 32.1775 57.3681 32.3727C57.1164 32.568 56.9086 32.814 56.7581 33.0947V33.0948ZM45.2662 37.9047C45.5036 35.9367 45.7325 33.2283 45.9684 31.0517C46.0149 30.5816 45.889 30.1105 45.6141 29.7263C45.5006 29.5641 45.4338 29.3738 45.421 29.1763C45.4081 28.9787 45.4497 28.7814 45.5412 28.6058C45.6327 28.4302 45.7706 28.2831 45.9398 28.1805C46.1091 28.0778 46.3033 28.0235 46.5013 28.0236C46.6993 28.0236 46.8935 28.078 47.0627 28.1807C47.232 28.2834 47.3698 28.4306 47.4612 28.6062C47.5526 28.7818 47.5941 28.9791 47.5812 29.1767C47.5683 29.3742 47.5014 29.5645 47.3879 29.7267C47.113 30.1107 46.9871 30.5816 47.0337 31.0516C47.2695 33.2259 47.4967 35.921 47.736 37.9047C47.8921 39.2011 45.1037 39.2536 45.2662 37.9046V37.9047ZM35.2068 35.9557C34.9072 35.5904 34.4851 35.3464 34.019 35.2691C33.8241 35.2346 33.6423 35.1473 33.4935 35.0167C33.3448 34.8861 33.2346 34.7172 33.1752 34.5283C33.1157 34.3395 33.1092 34.138 33.1563 33.9457C33.2034 33.7534 33.3024 33.5777 33.4424 33.4377C33.5824 33.2978 33.7581 33.1989 33.9505 33.1518C34.1428 33.1048 34.3443 33.1114 34.5331 33.1709C34.7219 33.2305 34.8908 33.3407 35.0214 33.4895C35.1519 33.6383 35.2391 33.8201 35.2735 34.0151C35.3507 34.481 35.5947 34.903 35.96 35.2024C37.2703 36.2563 38.7941 37.5309 40.1433 38.6248C39.5869 39.0746 39.0783 39.5805 38.6255 40.1345C37.5356 38.7905 36.2592 37.2641 35.2068 35.9557ZM29.7395 47.3874C29.5773 47.5009 29.387 47.5677 29.1895 47.5805C28.9919 47.5934 28.7946 47.5518 28.619 47.4603C28.4434 47.3688 28.2963 47.2309 28.1937 47.0617C28.091 46.8924 28.0367 46.6982 28.0368 46.5002C28.0368 46.3022 28.0912 46.108 28.1939 45.9388C28.2966 45.7695 28.4438 45.6317 28.6194 45.5403C28.795 45.4489 28.9923 45.4074 29.1899 45.4203C29.3875 45.4332 29.5777 45.5001 29.7399 45.6136C30.1239 45.8885 30.5948 46.0144 31.0648 45.9678C33.2391 45.732 35.9342 45.5048 37.9179 45.2655C39.2144 45.1094 39.2669 47.8978 37.9179 47.7353C35.9499 47.498 33.2415 47.2691 31.0649 47.0331C30.5948 46.9866 30.1238 47.1125 29.7395 47.3874H29.7395ZM41.0482 58.6359L39.1752 56.7628C39.697 56.3333 40.2152 55.9072 40.7125 55.5025C40.9423 56.531 41.0549 57.5821 41.0482 58.6359H41.0482ZM36.2475 59.9098L39.2833 62.9456C38.8432 63.3869 38.335 63.7546 37.7782 64.0346L34.776 61.0324C35.0862 60.9588 35.3775 60.8208 35.631 60.6274C35.8845 60.434 36.0946 60.1895 36.2475 59.9098ZM36.7907 58.7127C37.2499 58.343 37.7314 57.9496 38.2203 57.5482L40.8515 60.1793C40.6973 60.8238 40.4322 61.4365 40.0682 61.9903L36.7907 58.7127ZM35.9691 57.7947C35.6038 58.0943 35.3598 58.5164 35.2825 58.9825C35.248 59.1774 35.1607 59.3592 35.0301 59.508C34.8995 59.6567 34.7305 59.7669 34.5417 59.8263C34.3529 59.8858 34.1513 59.8923 33.959 59.8452C33.7667 59.7981 33.591 59.6991 33.4511 59.5591C33.3111 59.4191 33.2122 59.2434 33.1652 59.051C33.1182 58.8587 33.1248 58.6572 33.1843 58.4684C33.2438 58.2796 33.354 58.1107 33.5029 57.9801C33.6517 57.8496 33.8335 57.7624 34.0285 57.728C34.4944 57.6508 34.9164 57.4068 35.2157 57.0415C36.2742 55.7255 37.5553 54.1942 38.6523 52.8408C39.1076 53.3956 39.6196 53.9015 40.1799 54.3501C38.8281 55.4457 37.2879 56.7338 35.9691 57.7947ZM34.2977 56.2197L31.015 52.9369C31.5675 52.5709 32.1805 52.3056 32.8255 52.1532L35.4623 54.7901C35.0601 55.28 34.6664 55.7619 34.2977 56.2198V56.2197ZM37.5101 52.2952C37.1051 52.7929 36.678 53.3123 36.2477 53.8352L34.3734 51.9609C35.4281 51.9565 36.48 52.0686 37.5101 52.2952V52.2952ZM30.0616 53.7237L33.1023 56.7644C32.8235 56.9185 32.5797 57.1285 32.3861 57.3814C32.1925 57.6343 32.0533 57.9244 31.9773 58.2337L28.9728 55.2292C29.2527 54.6723 29.6203 54.164 30.0616 53.7238V53.7237ZM28.5703 60.6277L32.3801 64.4375C31.3772 64.2563 30.3417 63.9941 29.2885 63.7193C29.0137 62.6661 28.7515 61.6307 28.5703 60.6277V60.6277ZM28.2803 64.7275C28.5541 65.7771 28.8154 66.8091 28.9965 67.8088L25.1987 64.0111C26.1985 64.1923 27.2306 64.4537 28.2803 64.7276V64.7275ZM21.0765 63.9496C21.7811 63.7949 22.5035 63.7367 23.2238 63.7763L29.231 69.7835C29.2706 70.5038 29.2122 71.2261 29.0575 71.9307L21.0765 63.9496ZM34.3533 64.6705L28.3372 58.6543C28.2981 57.9346 28.3571 57.2129 28.5124 56.509L36.4985 64.4951C35.7947 64.6505 35.073 64.7095 34.3533 64.6706V64.6705ZM47.7487 55.0835C47.5113 57.0516 47.2824 59.7599 47.0464 61.9365C47 62.4067 47.1259 62.8777 47.4008 63.2619C47.5143 63.4242 47.5811 63.6144 47.5939 63.812C47.6068 64.0095 47.5652 64.2068 47.4737 64.3824C47.3822 64.558 47.2443 64.7051 47.075 64.8078C46.9057 64.9104 46.7115 64.9647 46.5136 64.9646C46.3156 64.9646 46.1214 64.9103 45.9522 64.8075C45.7829 64.7048 45.6451 64.5576 45.5537 64.382C45.4623 64.2064 45.4208 64.0091 45.4337 63.8115C45.4466 63.614 45.5135 63.4238 45.627 63.2616C45.9019 62.8775 46.0278 62.4066 45.9811 61.9366C45.7453 59.7623 45.5182 57.0673 45.2789 55.0835C45.1228 53.7871 47.9111 53.7346 47.7487 55.0836V55.0835ZM44.0413 54.9947C42.6055 54.5756 41.2968 53.8055 40.2332 52.7539C39.1696 51.7024 38.3846 50.4025 37.9492 48.9716C40.9019 49.1238 40.7996 43.8677 37.9261 44.0304C38.358 42.5889 39.1421 41.2777 40.2077 40.2152C41.2733 39.1527 42.5868 38.3723 44.0296 37.9446C43.8893 40.8686 49.0632 40.7842 48.9729 37.9693C50.3965 38.4059 51.6912 39.1855 52.743 40.2395C53.7949 41.2935 54.5718 42.5898 55.0054 44.0143C52.1459 43.9372 52.233 49.0074 54.9975 48.9606C54.5655 50.3781 53.7914 51.6675 52.7434 52.7152C51.6954 53.7628 50.4057 54.5365 48.9881 54.968C49.0363 52.1293 43.9815 52.2277 44.0412 54.9947L44.0413 54.9947ZM57.8081 57.0325C58.1076 57.3977 58.5298 57.6418 58.9958 57.7191C59.1908 57.7536 59.3725 57.8409 59.5213 57.9715C59.6701 58.1021 59.7802 58.271 59.8397 58.4598C59.8991 58.6487 59.9056 58.8502 59.8585 59.0425C59.8114 59.2348 59.7125 59.4105 59.5724 59.5504C59.4324 59.6904 59.2567 59.7893 59.0644 59.8363C58.8721 59.8833 58.6706 59.8767 58.4817 59.8172C58.2929 59.7577 58.1241 59.6475 57.9935 59.4986C57.863 59.3498 57.7757 59.168 57.7413 58.9731C57.6642 58.5071 57.4202 58.0851 57.0548 57.7858C55.7232 56.7147 54.1707 55.4153 52.8055 54.3097C53.3666 53.856 53.8788 53.345 54.3338 52.7849C55.4358 54.1456 56.7375 55.7016 57.8081 57.0325ZM63.2753 45.6007C63.4376 45.4873 63.6278 45.4205 63.8254 45.4076C64.0229 45.3948 64.2203 45.4363 64.3958 45.5278C64.5714 45.6193 64.7185 45.7572 64.8212 45.9265C64.9238 46.0958 64.9781 46.29 64.9781 46.488C64.978 46.6859 64.9237 46.8801 64.821 47.0494C64.7182 47.2186 64.5711 47.3564 64.3954 47.4479C64.2198 47.5393 64.0225 47.5808 63.8249 47.5678C63.6274 47.5549 63.4372 47.488 63.275 47.3745C62.8909 47.0996 62.42 46.9737 61.95 47.0204C59.7757 47.2562 57.0807 47.4833 55.0969 47.7226C53.8004 47.8787 53.7479 45.0904 55.0969 45.2529C57.065 45.4902 59.7733 45.7191 61.9499 45.9551C62.4201 46.0016 62.8911 45.8756 63.2753 45.6007H63.2753ZM55.4885 40.7129C55.8947 40.2135 56.3235 39.692 56.7558 39.1669L58.6383 41.0494C57.579 41.057 56.5223 40.9441 55.4885 40.7129ZM62.9461 39.2826L59.8958 36.2324C60.1755 36.0809 60.4209 35.8732 60.6164 35.6223C60.812 35.3714 60.9535 35.0827 61.0321 34.7744L64.0342 37.7766C63.7546 38.3337 63.3872 38.8422 62.9461 39.2826ZM69.7862 29.2324L63.7744 23.2206C63.7351 22.5006 63.7938 21.7786 63.9489 21.0745L71.9326 29.0581C71.2283 29.2131 70.5063 29.2718 69.7862 29.2324Z" fill="black"/>
<path d="M49.853 48.0319C50.4991 48.0313 51.1193 47.7771 51.58 47.324C52.0407 46.8709 52.3052 46.2552 52.3167 45.6091C52.3218 45.2794 52.2598 44.952 52.1344 44.647C52.0091 44.3419 51.823 44.0656 51.5875 43.8347C51.2476 43.4933 50.8148 43.2593 50.3429 43.1619C49.8711 43.0644 49.381 43.1078 48.9337 43.2866C48.4863 43.4654 48.1013 43.7718 47.8266 44.1676C47.5519 44.5634 47.3996 45.0312 47.3886 45.5129C47.3771 46.1693 47.6269 46.8035 48.0829 47.2759C48.539 47.7482 49.164 48.0201 49.8205 48.0317C49.8313 48.0319 49.842 48.0319 49.853 48.0319ZM48.6187 45.5419C48.624 45.3007 48.7003 45.0665 48.8379 44.8684C48.9756 44.6704 49.1686 44.5173 49.3928 44.4282C49.6169 44.3392 49.8624 44.3182 50.0984 44.3678C50.3345 44.4174 50.5507 44.5355 50.72 44.7072C50.8377 44.8219 50.9309 44.9594 50.9939 45.1112C51.0569 45.263 51.0883 45.426 51.0863 45.5904C51.0751 45.9147 50.9387 46.2221 50.7056 46.4479C50.4726 46.6737 50.161 46.8004 49.8365 46.8013C49.5086 46.794 49.1968 46.6576 48.9688 46.4218C48.7408 46.1861 48.615 45.8699 48.6187 45.5419Z" fill="black"/>
<path d="M44.3525 46.1868C44.9987 46.1862 45.6188 45.932 46.0795 45.4789C46.5402 45.0259 46.8047 44.4101 46.8162 43.764C46.8213 43.4343 46.7593 43.1069 46.6339 42.8019C46.5086 42.4968 46.3225 42.2205 46.087 41.9896C45.7471 41.6482 45.3143 41.4142 44.8425 41.3168C44.3706 41.2193 43.8806 41.2627 43.4332 41.4415C42.9858 41.6203 42.6008 41.9267 42.3261 42.3225C42.0514 42.7183 41.8991 43.1861 41.8881 43.6678C41.8766 44.3243 42.1264 44.9584 42.5824 45.4308C43.0385 45.9031 43.6635 46.175 44.32 46.1866C44.3309 46.1867 44.3416 46.1868 44.3525 46.1868ZM43.1182 43.6968C43.1235 43.4556 43.1998 43.2214 43.3374 43.0233C43.4751 42.8253 43.6681 42.6722 43.8923 42.5831C44.1164 42.4941 44.3619 42.4731 44.5979 42.5227C44.834 42.5723 45.0502 42.6904 45.2195 42.8621C45.3373 42.9768 45.4304 43.1143 45.4934 43.2661C45.5564 43.4179 45.5878 43.5809 45.5858 43.7453C45.5756 44.0699 45.4394 44.3778 45.2061 44.6038C44.9729 44.8298 44.6608 44.9562 44.336 44.9562C44.0081 44.9489 43.6963 44.8125 43.4683 44.5767C43.2403 44.341 43.1145 44.0248 43.1182 43.6968Z" fill="black"/>
<path d="M45.3043 46.5604C44.6726 46.5794 44.0719 46.8383 43.6241 47.2843C43.1763 47.7303 42.9151 48.33 42.8934 48.9616C42.882 49.6181 43.1317 50.2523 43.5878 50.7247C44.0438 51.197 44.6689 51.4689 45.3254 51.4805C45.3363 51.4807 45.347 51.4808 45.3579 51.4808C46.0041 51.4801 46.6242 51.2259 47.0849 50.7728C47.5456 50.3197 47.8102 49.7039 47.8216 49.0579C47.8267 48.7281 47.7647 48.4008 47.6393 48.0958C47.5139 47.7907 47.3278 47.5144 47.0924 47.2835C46.8578 47.0496 46.5787 46.865 46.2716 46.7408C45.9645 46.6166 45.6356 46.5552 45.3043 46.5604ZM45.3414 50.2502C45.0135 50.2429 44.7017 50.1065 44.4737 49.8707C44.2457 49.6349 44.1199 49.3187 44.1235 48.9907C44.1346 48.6748 44.2654 48.3749 44.4895 48.152C44.7136 47.9291 45.0142 47.7999 45.3302 47.7906C45.4962 47.7884 45.661 47.8196 45.8147 47.8824C45.9684 47.9452 46.1079 48.0383 46.2248 48.1561C46.3426 48.2708 46.4358 48.4082 46.4987 48.56C46.5617 48.7118 46.5932 48.8749 46.5912 49.0392C46.5808 49.3638 46.4445 49.6716 46.2113 49.8976C45.9781 50.1235 45.6661 50.25 45.3414 50.2502V50.2502Z" fill="black"/>
</svg>
