<svg width="70" height="70" viewBox="0 0 70 70" fill="none" xmlns="http://www.w3.org/2000/svg">
<path d="M25.9677 41.7742H22.5806V38.3871C22.5806 37.7662 22.0725 37.2581 21.4516 37.2581H16.9354C16.3145 37.2581 15.8064 37.7662 15.8064 38.3871V41.7742H12.4193C11.7983 41.7742 11.2903 42.2823 11.2903 42.9032V47.4194C11.2903 48.0403 11.7983 48.5484 12.4193 48.5484H15.8064V51.9355C15.8064 52.5565 16.3145 53.0645 16.9354 53.0645H21.4516C22.0725 53.0645 22.5806 52.5565 22.5806 51.9355V48.5484H25.9677C26.5887 48.5484 27.0967 48.0403 27.0967 47.4194V42.9032C27.0967 42.2823 26.5887 41.7742 25.9677 41.7742ZM24.8387 46.2903H21.4516C20.8306 46.2903 20.3225 46.7984 20.3225 47.4194V50.8065H18.0645V47.4194C18.0645 46.7984 17.5564 46.2903 16.9354 46.2903H13.5483V44.0323H16.9354C17.5564 44.0323 18.0645 43.5242 18.0645 42.9032V39.5162H20.3225V42.9032C20.3225 43.5242 20.8306 44.0323 21.4516 44.0323H24.8387V46.2903Z" fill="#00AFF0"/>
<path d="M59.8387 45.1613H52.6581C54.9613 43.2984 56.4516 40.4532 56.4516 37.2581V16.9355C56.4516 11.3355 51.8903 6.77421 46.2903 6.77421C40.6903 6.77421 36.129 11.3355 36.129 16.9355V27.0968L29.3548 18.0645C31.2177 18.0645 32.7419 16.5403 32.7419 14.6774V7.90324C32.7419 6.04034 31.2177 4.51614 29.3548 4.51614H9.03226C7.16935 4.51614 5.64516 6.04034 5.64516 7.90324V14.6774C5.64516 16.5403 7.16935 18.0645 9.03226 18.0645L0.225806 29.8065C0.0790323 29.9984 0 30.2355 0 30.4839V33.871V56.4516V62.0968C0 63.9597 1.52419 65.4839 3.3871 65.4839H35C35.6097 65.4839 36.1855 65.3032 36.6823 65.021C36.7726 65.0774 36.8742 65.1339 36.9871 65.1678C37.8226 65.3823 38.6694 65.4839 39.5161 65.4839H59.8387C62.5484 65.4839 65.1 64.4339 67.0306 62.5032C68.95 60.5839 70 58.0323 70 55.3226C70 49.7226 65.4387 45.1613 59.8387 45.1613ZM46.2903 45.1613C41.9323 45.1613 38.3871 41.6161 38.3871 37.2581V33.871V30.4839V28.2258H54.1936V37.2581C54.1936 41.6161 50.6484 45.1613 46.2903 45.1613ZM2.25806 35H36.129V37.2581V55.3226H2.25806V35ZM38.3871 43.6258C38.8387 44.1903 39.3581 44.6984 39.9226 45.1613H39.5161C39.1435 45.1613 38.7597 45.1952 38.3871 45.229V43.6258ZM46.2903 9.03227C50.6484 9.03227 54.1936 12.5774 54.1936 16.9355V25.9678H38.3871V16.9355C38.3871 12.5774 41.9323 9.03227 46.2903 9.03227ZM7.90323 14.6774V7.90324C7.90323 7.28227 8.41129 6.77421 9.03226 6.77421H11.2903V10.1613C11.2903 10.7823 11.7984 11.2903 12.4194 11.2903C13.0403 11.2903 13.5484 10.7823 13.5484 10.1613V6.77421H18.0645V10.1613C18.0645 10.7823 18.5726 11.2903 19.1935 11.2903C19.8145 11.2903 20.3226 10.7823 20.3226 10.1613V6.77421H24.8387V10.1613C24.8387 10.7823 25.3468 11.2903 25.9677 11.2903C26.5887 11.2903 27.0968 10.7823 27.0968 10.1613V6.77421H29.3548C29.9758 6.77421 30.4839 7.28227 30.4839 7.90324V14.6774C30.4839 15.2984 29.9758 15.8065 29.3548 15.8065H9.03226C8.41129 15.8065 7.90323 15.2984 7.90323 14.6774ZM11.8548 18.0645H26.5323L36.129 30.8565V32.742H2.25806V30.8565L11.8548 18.0645ZM35 63.2258H3.3871C2.76613 63.2258 2.25806 62.7178 2.25806 62.0968V57.5807H36.129V62.0968C36.129 62.7178 35.621 63.2258 35 63.2258ZM38.2177 63.1016C38.3194 62.7855 38.3871 62.4468 38.3871 62.0968V56.4516V47.5097C38.7597 47.4532 39.1435 47.4194 39.5161 47.4194H48.5484V63.2258H39.5161C39.0871 63.2258 38.6468 63.1807 38.2177 63.1016ZM65.4387 60.9113C63.9258 62.4016 61.9387 63.2258 59.8387 63.2258H50.8064V47.4194H59.8387C64.1968 47.4194 67.7419 50.9645 67.7419 55.3226C67.7419 57.4226 66.9177 59.4097 65.4387 60.9113Z" fill="#00AFF0"/>
</svg>
