<svg width="93" height="93" viewBox="0 0 93 93" fill="none" xmlns="http://www.w3.org/2000/svg">
<rect width="93" height="93" rx="8" fill="#EFFBFF"/>
<path d="M68.8157 70.0469C63.4516 62.5277 58.8553 55.6818 54.7757 49.1477C58.2696 43.413 61.5799 37.6465 64.7066 31.8503C64.7949 31.7158 64.849 31.562 64.8639 31.4025V31.3239V31.2303C64.8525 31.073 64.8037 30.9214 64.7215 30.7874C64.2738 29.877 60.2139 21.6491 58.713 18.5876C57.6791 16.4763 52.6548 15 46.4986 15C40.3423 15 35.3967 16.4763 34.2943 18.563C32.7195 21.5253 28.7186 29.8618 28.2906 30.792C28.2409 30.8777 28.2044 30.9708 28.1825 31.0675C28.1776 31.1215 28.1776 31.176 28.1825 31.2301V31.3237V31.3975V31.397C28.1987 31.5574 28.2545 31.7112 28.3446 31.8452C31.4106 37.6371 34.7469 43.4443 38.2215 49.1427C34.0482 55.845 29.4717 62.6315 24.1815 70.0474C24.026 70.2667 23.9667 70.5404 24.0181 70.8041C24.0691 71.0681 24.2259 71.2997 24.4522 71.4451C27.7691 73.5774 31.0728 75.7102 34.3633 77.8425C34.8014 78.1255 35.384 78.0174 35.692 77.5965C39.435 72.5049 43.0441 67.3523 46.5183 62.1392C49.9631 67.3261 53.595 72.5179 57.3447 77.5965C57.6523 78.0174 58.2354 78.1255 58.6734 77.8425C61.9542 75.7168 65.2579 73.5841 68.5845 71.4451C68.8103 71.2997 68.9676 71.0681 69.0186 70.8041C69.0696 70.5404 69.0107 70.2667 68.8551 70.0474L68.8157 70.0469ZM36.0407 19.4784C36.4985 18.6022 40.0364 16.9687 46.498 16.9687C52.9597 16.9687 56.5322 18.6124 56.9457 19.4539C57.8657 21.3287 59.7508 25.1526 61.173 28.0412C57.969 26.7077 52.9297 25.9792 46.4986 25.9792C39.5748 25.9792 34.9051 26.5156 31.9423 27.7358C33.3352 24.8719 35.1266 21.2255 36.0417 19.4785L36.0407 19.4784ZM46.498 35.0931C45.2089 32.7754 43.9487 30.433 42.6842 28.0116C43.9932 27.9624 45.2876 27.9474 46.4932 27.9474C47.8513 27.9474 49.1163 27.9786 50.2872 28.041C49.0437 30.426 47.7805 32.7767 46.4979 35.0931L46.498 35.0931ZM30.2579 31.3232C31.7342 29.2466 36.0305 28.4294 40.5232 28.1197C42.1323 31.2104 43.722 34.163 45.3705 37.1055C43.4513 40.5059 41.468 43.872 39.3866 47.2579C36.1975 42.002 33.132 36.653 30.258 31.3237L30.2579 31.3232ZM34.6526 75.6714C31.9064 73.8968 29.1506 72.1199 26.3851 70.3417C31.5619 63.0589 36.0599 56.3366 40.1687 49.7327L40.2029 49.6787C42.7126 45.6434 45.0748 41.6526 47.3534 37.597L47.3877 37.5329C49.11 34.4668 50.7833 31.3666 52.4415 28.1828C58.4848 28.7241 61.6738 30.0625 62.7366 31.342C54.391 46.7408 45.0061 61.5535 34.6465 75.6756L34.6526 75.6714ZM58.348 75.6714C54.6572 70.6326 51.0745 65.4852 47.6789 60.3525C49.7162 57.2553 51.6992 54.1388 53.6286 51.0024C57.4472 57.08 61.7088 63.4238 66.6158 70.3325C63.8468 72.1204 61.091 73.902 58.3483 75.6767L58.348 75.6714Z" fill="black"/>
</svg>
