<svg width="51" height="61" viewBox="0 0 51 61" fill="none" xmlns="http://www.w3.org/2000/svg">
<path d="M45.8798 40.0011C43.9899 39.0383 42.0208 38.2367 39.9945 37.6059C39.01 37.2792 38.1788 37.0396 37.391 36.8437C36.3415 36.5288 35.2754 36.2741 34.1966 36.0816C33.2594 35.0716 32.6099 33.8312 32.3149 32.4887C34.9242 30.3637 36.8113 27.4891 37.7192 24.2574C38.2056 24.2268 38.6676 24.0348 39.032 23.713C40.0116 22.7555 40.5904 21.464 40.6509 20.0982C40.7764 19.0643 40.6099 18.0165 40.1693 17.0715C40.4458 15.9157 40.5854 14.7321 40.5854 13.5442C40.5634 5.31291 34.6341 0 25.4452 0C16.2563 0 10.3487 5.31304 10.3487 13.5442C10.3594 14.7146 10.484 15.8811 10.7208 17.0282C10.2437 17.978 10.0391 19.0405 10.1299 20.0982C10.1988 21.4664 10.7848 22.7579 11.7708 23.713C12.141 24.0396 12.6113 24.2311 13.1056 24.2574C13.9885 27.4946 15.8712 30.3739 18.4879 32.4887C18.2432 33.8696 17.6225 35.1576 16.6936 36.2119C14.8119 36.5385 13.6525 36.8214 13.6305 36.8433C12.8208 37.0391 11.9676 37.2788 10.9831 37.6054V37.6059C8.95968 38.245 6.99158 39.046 5.09773 40.0011C3.5647 40.7793 2.27735 41.9634 1.37781 43.4235C0.478232 44.8835 0.00155761 46.5628 5.73342e-05 48.2757V50.8018V50.8013C-0.0048263 51.9401 0.302362 53.0591 0.888406 54.037C1.47445 55.0154 2.31692 55.8165 3.32535 56.354C10.2192 59.6387 17.8067 61.2218 25.4456 60.9706C33.1209 61.2399 40.7471 59.6559 47.6747 56.354C48.6831 55.8164 49.5256 55.0154 50.1116 54.037C50.6976 53.059 51.0048 51.9401 50.9999 50.8013V48.2758C50.999 46.56 50.5199 44.8782 49.6159 43.4176C48.7125 41.9571 47.4193 40.774 45.8804 40.0012L45.8798 40.0011ZM25.4449 1.87205C33.6055 1.87205 38.5722 6.33598 38.5722 13.5437C38.5737 14.2062 38.5298 14.8683 38.4409 15.5249L38.1781 15.416H38.1786C37.6912 15.2867 37.1779 15.2867 36.6906 15.416C36.4718 14.7409 36.0997 13.674 35.4653 11.9101V11.9106C35.4731 11.8527 35.4731 11.7939 35.4653 11.7361L35.3339 11.6053H35.3344C33.8 10.5831 31.9954 10.0372 30.1488 10.0372C28.3022 10.0372 26.4978 10.5831 24.9633 11.6053C23.7497 12.4146 22.3216 12.8462 20.861 12.8462C19.4002 12.8462 17.9727 12.4146 16.7588 11.6053H16.4526C16.3959 11.5854 16.3344 11.5854 16.2777 11.6053H15.9495C15.889 11.6364 15.8362 11.6811 15.7962 11.7361C15.742 11.7681 15.697 11.8129 15.6648 11.8668V11.9757C15.0304 13.7396 14.6583 14.8065 14.4395 15.4816H14.44C13.9614 15.3416 13.4525 15.3416 12.9738 15.4816H12.777C12.5778 14.8473 12.4239 14.1994 12.3175 13.5438C12.3175 6.33603 17.3056 1.8721 25.4449 1.8721L25.4449 1.87205ZM14.7242 22.994C14.6426 22.7248 14.4404 22.508 14.1772 22.4059C13.913 22.2868 13.6102 22.2868 13.346 22.4059C13.2195 22.4049 13.0998 22.349 13.0178 22.2538C12.4195 21.6127 12.0777 20.7762 12.0547 19.9018C11.9234 18.4213 12.4703 17.3326 13.0613 17.158C13.407 17.0861 13.767 17.1483 14.0678 17.3325C14.1572 17.3869 14.2524 17.4307 14.352 17.4632C14.6353 17.5425 14.9391 17.4948 15.1837 17.3325C15.383 17.176 15.5163 16.9504 15.5554 16.7011C15.5554 16.3963 16.1024 15.0029 16.6273 13.5437H16.6278C17.9181 14.1605 19.3315 14.4803 20.7628 14.4798C22.6197 14.5061 24.4393 13.9583 25.9698 12.9118C27.1502 12.1462 28.524 11.7272 29.9329 11.7044C31.3419 11.6811 32.7288 12.0544 33.9336 12.7815C34.546 14.5016 35.1809 16.3525 35.2683 16.701C35.3079 16.9504 35.4407 17.1759 35.6405 17.3324C35.8671 17.4578 36.1342 17.4889 36.3843 17.4194C36.4927 17.3922 36.5962 17.3485 36.6905 17.2887C36.9972 17.0991 37.3664 17.0364 37.719 17.1147C38.2879 17.2887 38.8349 18.3774 38.7035 19.8585C38.6752 20.7275 38.3426 21.5597 37.7625 22.2099C37.6443 22.3179 37.4831 22.366 37.3249 22.3407C37.0714 22.209 36.7691 22.209 36.5157 22.3407C36.269 22.4476 36.0898 22.6668 36.0341 22.9283C35.2894 26.2097 33.4263 29.1338 30.7612 31.2029C29.2032 32.369 27.3064 32.9995 25.3573 32.9995C23.4077 32.9995 21.5113 32.369 19.9529 31.2029C17.3133 29.1508 15.4721 26.2486 14.746 22.9939L14.7242 22.994ZM20.1939 33.5769C23.4299 35.4054 27.394 35.4054 30.6304 33.5769C31.0607 34.9632 31.8098 36.2303 32.8183 37.2787C32.3368 38.7811 28.8801 41.6338 25.5109 43.8113C22.1416 41.6338 18.663 38.8681 18.2034 37.2787H18.2029C19.1494 36.2138 19.838 34.9477 20.2161 33.5769H20.1939ZM1.75056 50.8005V48.275C1.74372 46.9091 2.1139 45.5681 2.81961 44.3972C3.52579 43.2263 4.54067 42.2702 5.75426 41.6335C7.55634 40.7513 9.42968 40.0233 11.3554 39.456H11.4868C11.1845 40.6673 10.9584 41.8965 10.8084 43.1359C9.70032 43.4358 8.73731 44.1216 8.09507 45.0689C7.45237 46.0162 7.17302 47.1613 7.30781 48.2964L7.67995 51.2579H7.67946C7.29609 51.7955 7.34346 52.5265 7.79276 53.0107C8.24206 53.4948 8.97072 53.5993 9.53921 53.2615C9.9216 53.0996 10.2097 52.7749 10.3245 52.3778C10.4388 51.9807 10.3675 51.5535 10.1301 51.2147C10.0134 50.9906 9.83027 50.8079 9.60513 50.6917L9.25497 47.9047C9.17439 46.8991 9.62564 45.924 10.4461 45.331C11.2661 44.7385 12.3376 44.6131 13.2732 45.001C14.2094 45.3884 14.875 46.2326 15.0309 47.2295L15.3811 50.0822C15.198 50.2557 15.0627 50.4735 14.9875 50.7136C14.84 51.4198 15.258 52.1216 15.952 52.3307C16.6455 52.5402 17.3849 52.1883 17.6564 51.5194C17.8156 51.0008 17.6525 50.4375 17.2408 50.0822L16.8687 47.0774C16.7339 46.0421 16.2602 45.0802 15.5203 44.34C14.7809 43.6002 13.8169 43.1234 12.7776 42.9834C12.9739 41.5792 13.2664 40.1896 13.6527 38.8242H13.9809C13.9809 38.8242 14.9435 38.5846 16.497 38.3017C17.7003 41.0887 22.6671 44.3769 24.5268 45.5095V59.2926H24.5263C17.4664 59.4515 10.4675 57.9598 4.09138 54.9375C3.34076 54.5477 2.72001 53.9489 2.30443 53.2144C1.88883 52.48 1.69641 51.6415 1.75062 50.8002L1.75056 50.8005ZM49.1404 50.8005H49.1399C49.1521 51.6054 48.9392 52.3977 48.526 53.0898C48.1129 53.7815 47.5151 54.3463 46.7992 54.7201C40.4236 57.7424 33.4243 59.234 26.3643 59.0751V45.3132C28.246 44.1593 33.3002 40.8273 34.4155 38.0185C35.2687 38.1925 36.1004 38.3888 36.8876 38.6066H37.1063V38.6061C37.623 40.5416 37.9815 42.515 38.1788 44.5073C37.1083 44.8719 36.283 45.7317 35.966 46.8126C35.6491 47.8931 35.8796 49.0597 36.5843 49.9404C37.2895 50.8212 38.3805 51.3053 39.5096 51.2392C40.6387 51.1732 41.6652 50.5651 42.2616 49.6081C42.8579 48.6515 42.9492 47.466 42.5072 46.4298C42.0648 45.3935 41.1442 44.6357 40.0385 44.3986C39.8622 42.6479 39.5775 40.9097 39.1849 39.1944H39.4256C41.3522 39.7577 43.2266 40.4864 45.0268 41.3719C46.2623 41.9922 47.3011 42.9414 48.0273 44.1138C48.7536 45.2861 49.1384 46.636 49.1398 48.0134L49.1404 50.8005ZM39.2949 46.1839L39.2944 46.1844C40.1925 46.1961 40.9138 46.9237 40.9138 47.8176C40.9138 48.7075 40.1886 49.4288 39.2944 49.4288C38.4002 49.4288 37.6755 48.7075 37.6755 47.8176C37.6755 46.9237 38.3968 46.1961 39.2944 46.1844L39.2949 46.1839Z" fill="#00AFF0"/>
</svg>
