<svg width="93" height="93" viewBox="0 0 93 93" fill="none" xmlns="http://www.w3.org/2000/svg">
<rect width="93" height="93" rx="8" fill="#EFFBFF"/>
<path d="M66.8741 73.1519L63.921 68.3654C63.8449 68.2419 63.7385 68.14 63.6118 68.0694C63.4852 67.9987 63.3425 67.9617 63.1975 67.9618H62.3337C63.9761 65.4739 65.0188 62.6387 65.3798 59.6795C65.7408 56.7203 65.4103 53.7176 64.4142 50.9078C63.4181 48.098 61.7836 45.5576 59.6394 43.4864C57.4951 41.4153 54.8995 39.87 52.0568 38.972C51.8227 37.8153 51.1808 36.7812 50.248 36.0582L54.3258 29.2513C54.4416 29.058 54.476 28.8267 54.4216 28.608C54.3672 28.3894 54.2283 28.2012 54.0354 28.0848L52.9846 27.4548L53.7377 26.2022L54.0699 26.4015C54.2635 26.5171 54.495 26.5511 54.7137 26.4962C54.9323 26.4413 55.1203 26.302 55.2364 26.1086L56.959 23.2441C57.0165 23.1486 57.0543 23.0427 57.0704 22.9324C57.0865 22.8221 57.0804 22.7097 57.0525 22.6018C56.9983 22.3828 56.8593 22.1943 56.6662 22.0776L50.9814 18.6717C50.8856 18.6141 50.7794 18.5761 50.6689 18.5596C50.5584 18.5432 50.4457 18.5488 50.3374 18.576C50.229 18.6032 50.1271 18.6515 50.0374 18.7182C49.9478 18.7849 49.8722 18.8686 49.8149 18.9645L48.0923 21.8291C47.9765 22.0224 47.942 22.2537 47.9965 22.4723C48.0509 22.691 48.1898 22.8791 48.3827 22.9956L48.7149 23.1949L47.9766 24.4475L46.9282 23.8175C46.8328 23.7598 46.7268 23.7214 46.6165 23.7046C46.5062 23.6878 46.3936 23.6929 46.2853 23.7197C46.177 23.7464 46.075 23.7942 45.9851 23.8604C45.8953 23.9266 45.8194 24.0099 45.7618 24.1054L33.0436 45.3064L32.1429 44.7773C31.9498 44.6695 31.7223 44.6411 31.5086 44.6981C31.2949 44.7551 31.1118 44.893 30.9979 45.0826C30.8841 45.2722 30.8485 45.4987 30.8987 45.7141C30.9489 45.9295 31.0809 46.1169 31.2668 46.2367L32.17 46.7781L31.1044 48.5524C30.995 48.7442 30.9644 48.971 31.019 49.185C31.0736 49.399 31.2093 49.5833 31.3973 49.6992L31.7246 49.8936C31.4383 50.4697 31.3037 51.1092 31.3334 51.7518C31.3631 52.3943 31.5563 53.0187 31.8945 53.5658C32.2327 54.113 32.7049 54.5648 33.2664 54.8786C33.8279 55.1925 34.4602 55.3579 35.1034 55.3594C35.4187 55.3585 35.7327 55.3197 36.0386 55.2437C36.9081 55.0238 37.6701 54.5001 38.187 53.7671L38.5118 53.9615C38.6439 54.0415 38.7955 54.0832 38.9499 54.0821C39.0982 54.0843 39.2444 54.0475 39.374 53.9753C39.5035 53.9032 39.6119 53.7983 39.6882 53.6712L40.7414 51.914L41.839 52.5711C41.9716 52.6499 42.1229 52.6916 42.2771 52.6917C42.4628 52.6911 42.6432 52.6298 42.7908 52.5171C42.9384 52.4045 43.0451 52.2467 43.0947 52.0677C43.1444 51.8888 43.1341 51.6985 43.0656 51.5259C42.997 51.3534 42.874 51.2079 42.7151 51.1118L41.6175 50.4375L45.2696 44.3688C45.8974 44.6707 46.586 44.8248 47.2826 44.8192C48.136 44.8163 48.9733 44.587 49.7091 44.1547C52.9534 45.0263 55.7657 47.0569 57.6137 49.8623C59.4617 52.6677 60.2173 56.0532 59.7374 59.3781C59.2342 62.7563 57.4769 65.8211 54.8155 67.9618H30.5236C30.3786 67.9617 30.236 67.9987 30.1093 68.0694C29.9826 68.14 29.8762 68.2419 29.8001 68.3654L26.847 73.1519C26.767 73.2807 26.723 73.4285 26.7195 73.5799C26.7159 73.7314 26.753 73.8811 26.8268 74.0135C26.9006 74.1458 27.0085 74.256 27.1393 74.3325C27.2701 74.4091 27.419 74.4492 27.5705 74.4488H66.1506C66.3022 74.4492 66.451 74.4091 66.5818 74.3325C66.7126 74.256 66.8205 74.1458 66.8943 74.0135C66.9681 73.8811 67.0052 73.7314 67.0017 73.5799C66.9981 73.4285 66.9541 73.2807 66.8741 73.1519ZM50.8362 20.5666L55.0567 23.0989L54.2151 24.5066L53.8829 24.3072L50.3293 22.1736L49.997 21.9743L50.8362 20.5666ZM50.1914 24.0685L52.2783 25.3359L51.54 26.5885L49.4409 25.3285L50.1914 24.0685ZM35.6375 53.5998C35.3707 53.6682 35.0931 53.683 34.8206 53.6433C34.5481 53.6036 34.2862 53.5102 34.0502 53.3685C33.6212 53.109 33.2991 52.7047 33.1421 52.2286C32.9851 51.7525 33.0034 51.2359 33.1937 50.7722L36.7277 52.8984C36.4461 53.2463 36.0592 53.4933 35.6252 53.6022L35.6375 53.5998ZM38.6693 52.074L38.4232 51.9313C38.4036 51.9165 38.3912 51.8968 38.3691 51.882C38.347 51.8673 38.3223 51.882 38.2977 51.8574L33.0043 48.6828L33.622 47.6492L39.2821 51.0404L38.6693 52.074ZM34.5153 46.1678L46.788 25.7026L47.8363 26.3301L51.3924 28.4638L52.4407 29.0913L48.7493 35.256C48.5078 35.1792 48.2611 35.12 48.0111 35.0788C47.0544 34.9338 46.0763 35.076 45.2006 35.4873C44.3249 35.8987 43.591 36.5608 43.0918 37.3896C42.5927 38.2184 42.3508 39.1768 42.3967 40.1432C42.4427 41.1096 42.7745 42.0407 43.35 42.8184C43.5089 43.0251 43.6833 43.2192 43.8718 43.3992L40.1803 49.5515L34.5153 46.1678ZM46.8027 43.0694C46.0711 42.9605 45.3999 42.6014 44.9032 42.0533C44.4065 41.5052 44.1151 40.802 44.0785 40.0632C44.042 39.3244 44.2626 38.5958 44.7027 38.0014C45.1429 37.4069 45.7754 36.9833 46.4927 36.8027C47.2099 36.6221 47.9676 36.6956 48.6368 37.0107C49.306 37.3259 49.8453 37.8631 50.163 38.5311C50.4807 39.1991 50.5571 39.9565 50.3792 40.6744C50.2013 41.3924 49.7802 42.0266 49.1874 42.469C48.8493 42.7266 48.4629 42.9136 48.0512 43.0189C47.6394 43.1241 47.2106 43.1455 46.7904 43.0817L46.8027 43.0694ZM61.4232 59.6192C61.9752 56.0583 61.2492 52.4169 59.3736 49.34C57.498 46.2631 54.594 43.9494 51.1758 42.8086C51.626 42.2068 51.9294 41.5082 52.0618 40.7685C54.673 41.6851 57.0306 43.2058 58.9426 45.2065C60.8546 47.2073 62.2669 49.6314 63.0643 52.2815C63.8617 54.9316 64.0217 57.7326 63.5312 60.4562C63.0407 63.1798 61.9137 65.749 60.2419 67.9544H57.2888C59.4934 65.6752 60.934 62.7664 61.4109 59.6315L61.4232 59.6192ZM29.0914 72.7483L30.9961 69.6623H62.7225L64.6273 72.7483H29.0914Z" fill="black"/>
<path d="M44.4182 67.1473C44.53 67.1473 44.6407 67.1252 44.744 67.0825C44.8473 67.0397 44.9412 66.9769 45.0203 66.8979C45.0993 66.8188 45.162 66.7249 45.2048 66.6216C45.2476 66.5183 45.2696 66.4076 45.2696 66.2958V62.9317C45.2696 62.8199 45.2476 62.7091 45.2048 62.6058C45.162 62.5025 45.0993 62.4087 45.0203 62.3296C44.9412 62.2505 44.8473 62.1878 44.744 62.145C44.6407 62.1022 44.53 62.0802 44.4182 62.0802H26.8495C26.7377 62.0802 26.627 62.1022 26.5237 62.145C26.4204 62.1878 26.3265 62.2505 26.2474 62.3296C26.1684 62.4087 26.1057 62.5025 26.0629 62.6058C26.0201 62.7091 25.998 62.8199 25.998 62.9317V66.2958C25.998 66.4076 26.0201 66.5183 26.0629 66.6216C26.1057 66.7249 26.1684 66.8188 26.2474 66.8979C26.3265 66.9769 26.4204 67.0397 26.5237 67.0825C26.627 67.1252 26.7377 67.1473 26.8495 67.1473H44.4182ZM27.6986 63.7807H43.5691V65.4492H27.6986V63.7807Z" fill="black"/>
<path d="M30.7623 61.4009H40.5396C40.7572 61.3892 40.962 61.2946 41.1119 61.1364C41.2618 60.9782 41.3453 60.7686 41.3453 60.5507C41.3453 60.3328 41.2618 60.1232 41.1119 59.965C40.962 59.8068 40.7572 59.7121 40.5396 59.7004H30.7623C30.5447 59.7121 30.3399 59.8068 30.19 59.965C30.0401 60.1232 29.9565 60.3328 29.9565 60.5507C29.9565 60.7686 30.0401 60.9782 30.19 61.1364C30.3399 61.2946 30.5447 61.3892 30.7623 61.4009Z" fill="black"/>
</svg>
