<svg width="93" height="93" viewBox="0 0 93 93" fill="none" xmlns="http://www.w3.org/2000/svg">
<rect width="93" height="93" rx="8" fill="#EFFBFF"/>
<path d="M68.4921 67.7866L61.2033 60.5476C65.1615 56.545 67.38 51.142 67.3766 45.5128C67.3766 33.6938 57.7611 24.0784 45.9422 24.0784C34.1233 24.0784 24.5078 33.6938 24.5078 45.5128C24.5078 57.3318 34.1233 66.9471 45.9422 66.9471C51.1291 66.9515 56.1401 65.0669 60.0387 61.6456L67.3649 68.9216L68.4921 67.7866ZM61.5962 33.3463C61.5427 33.9005 61.3418 34.4302 61.0144 34.8806C60.6871 35.3309 60.2452 35.6855 59.7346 35.9074C59.224 36.1294 58.6633 36.2106 58.1107 36.1428C57.5581 36.0749 57.0337 35.8604 56.592 35.5215L57.5664 34.2531C57.8358 34.4599 58.1669 34.5705 58.5065 34.5671C58.8462 34.5638 59.175 34.4467 59.4404 34.2346C59.7057 34.0225 59.8923 33.7276 59.9705 33.397C60.0486 33.0664 60.0137 32.7192 59.8713 32.4107L60.5422 32.1017C60.91 32.5018 61.2614 32.9167 61.5962 33.3463ZM34.9384 32.4107L36.3913 31.7414C36.6829 32.3745 36.754 33.0871 36.5933 33.7654C36.4326 34.4437 36.0494 35.0486 35.5048 35.4837C34.9602 35.9187 34.2855 36.1589 33.5885 36.1657C32.8914 36.1726 32.2122 35.9458 31.6591 35.5216L32.6334 34.253C32.9028 34.4599 33.2339 34.5705 33.5736 34.5672C33.9133 34.5639 34.2421 34.4469 34.5075 34.2348C34.7729 34.0227 34.9596 33.7278 35.0377 33.3971C35.1158 33.0665 35.0808 32.7192 34.9384 32.4107ZM34.9384 57.3436L36.3913 56.6742C36.6063 57.1398 36.7031 57.6513 36.673 58.1632C36.6429 58.6752 36.4869 59.1718 36.2188 59.6089C35.9507 60.0461 35.5789 60.4104 35.1362 60.6693C34.6936 60.9283 34.1938 61.074 33.6814 61.0935C33.158 60.6807 32.6567 60.2427 32.1775 59.7794L32.6334 59.1858C32.9028 59.3927 33.2339 59.5033 33.5736 59.5C33.9133 59.4967 34.2421 59.3797 34.5075 59.1676C34.7729 58.9555 34.9596 58.6605 35.0377 58.3299C35.1158 57.9993 35.0808 57.652 34.9384 57.3435V57.3436ZM35.5463 62.3977C36.4179 61.9895 37.1493 61.3325 37.6485 60.5096C38.1477 59.6867 38.3924 58.7345 38.3518 57.7729C38.3112 56.8112 37.9871 55.883 37.4203 55.1051C36.8535 54.3272 36.0693 53.7343 35.1664 53.4009C34.0188 52.9814 32.7558 53.0062 31.6255 53.4704C30.4952 53.9346 29.5794 54.8047 29.0579 55.9097C27.1291 52.785 26.1076 49.1853 26.1075 45.5133C26.1074 41.8413 27.1288 38.2416 29.0573 35.1168C29.4656 35.9884 30.1225 36.7198 30.9454 37.219C31.7684 37.7183 32.7206 37.963 33.6822 37.9224C34.6439 37.8818 35.5721 37.5577 36.35 36.9909C37.1279 36.4241 37.7209 35.6399 38.0542 34.737C38.4737 33.5893 38.4489 32.3263 37.9847 31.196C37.5205 30.0657 36.6503 29.1499 35.5453 28.6284C38.67 26.6997 42.2697 25.6781 45.9418 25.678C49.6138 25.6779 53.2135 26.6993 56.3384 28.6279C55.4667 29.0362 54.7353 29.6931 54.2361 30.516C53.7369 31.3389 53.4922 32.2911 53.5327 33.2528C53.5733 34.2144 53.8974 35.1426 54.4642 35.9205C55.031 36.6984 55.8152 37.2914 56.7181 37.6247C57.8658 38.0442 59.1288 38.0194 60.259 37.5551C61.3893 37.0909 62.3051 36.2209 62.8267 35.1159C64.7594 38.2391 65.7813 41.84 65.777 45.5128C65.777 56.4497 56.8792 65.3475 45.9423 65.3475C42.2698 65.3517 38.6692 64.3301 35.5462 62.3977L35.5463 62.3977Z" fill="black"/>
<path d="M44.2517 37.6247C45.3109 38.0158 46.473 38.0276 47.54 37.658C48.6069 37.2884 49.5127 36.5603 50.103 35.5977C50.6933 34.6351 50.9315 33.4976 50.7772 32.3791C50.6228 31.2605 50.0854 30.2301 49.2564 29.4633C48.4275 28.6966 47.3584 28.241 46.2312 28.1742C45.104 28.1074 43.9885 28.4335 43.0748 29.0969C42.1611 29.7603 41.5057 30.72 41.2203 31.8125C40.9348 32.905 41.0371 34.0627 41.5095 35.0883C41.7762 35.6713 42.1558 36.1957 42.6265 36.6311C43.0972 37.0665 43.6496 37.4042 44.2517 37.6247ZM45.0999 34.2529C45.3693 34.4598 45.7004 34.5705 46.0401 34.5672C46.3798 34.5639 46.7086 34.4468 46.974 34.2347C47.2394 34.0226 47.4261 33.7277 47.5042 33.397C47.5823 33.0664 47.5473 32.7191 47.4049 32.4107L48.8578 31.7413C49.1494 32.3744 49.2205 33.087 49.0598 33.7653C48.8991 34.4436 48.5159 35.0485 47.9713 35.4836C47.4267 35.9186 46.752 36.1588 46.055 36.1656C45.358 36.1725 44.6787 35.9457 44.1256 35.5215L45.0999 34.2529Z" fill="black"/>
<path d="M35.1665 40.9344C34.2609 40.6 33.2766 40.5417 32.3379 40.7667C31.3992 40.9918 30.5483 41.4901 29.8929 42.1988C29.2374 42.9074 28.8068 43.7945 28.6555 44.7479C28.5042 45.7013 28.6391 46.6781 29.0429 47.5548C29.4468 48.4316 30.1016 49.1689 30.9245 49.6735C31.7474 50.1781 32.7015 50.4273 33.666 50.3897C34.6306 50.3521 35.5623 50.0293 36.3434 49.4621C37.1245 48.895 37.7199 48.1089 38.0543 47.2034C38.2794 46.6024 38.3831 45.9628 38.3596 45.3214C38.3361 44.6801 38.1857 44.0498 37.9172 43.4669C37.6487 42.884 37.2674 42.3601 36.7952 41.9254C36.3231 41.4907 35.7695 41.1539 35.1665 40.9344ZM36.4854 46.5935C36.316 47.052 36.0412 47.4643 35.6833 47.7972C35.3253 48.13 34.8941 48.3741 34.4245 48.5098C33.9549 48.6455 33.46 48.669 32.9797 48.5783C32.4994 48.4877 32.0471 48.2855 31.6592 47.988L32.6335 46.7193C32.9029 46.9263 33.234 47.0369 33.5737 47.0336C33.9134 47.0303 34.2422 46.9133 34.5076 46.7012C34.773 46.489 34.9597 46.1941 35.0378 45.8635C35.1159 45.5328 35.0809 45.1856 34.9385 44.8771L36.3914 44.2078C36.564 44.5795 36.6612 44.9818 36.6773 45.3913C36.6935 45.8008 36.6283 46.2094 36.4854 46.5935Z" fill="black"/>
<path d="M47.6327 53.4009C46.5734 53.0098 45.4114 52.998 44.3444 53.3677C43.2775 53.7373 42.3717 54.4654 41.7815 55.428C41.1912 56.3906 40.953 57.528 41.1074 58.6466C41.2617 59.7651 41.7992 60.7955 42.6281 61.5622C43.457 62.3289 44.5262 62.7845 45.6533 62.8513C46.7805 62.9181 47.8959 62.592 48.8096 61.9286C49.7233 61.2652 50.3787 60.3055 50.6641 59.213C50.9495 58.1205 50.8473 56.9629 50.3749 55.9373C49.8331 54.7618 48.8468 53.8495 47.6327 53.4009ZM48.9516 59.06C48.7822 59.5185 48.5074 59.9308 48.1495 60.2636C47.7915 60.5965 47.3603 60.8406 46.8908 60.9762C46.4212 61.1119 45.9263 61.1354 45.4459 61.0448C44.9656 60.9541 44.5133 60.752 44.1254 60.4545L45.0997 59.1859C45.3692 59.3928 45.7002 59.5034 46.0399 59.5001C46.3796 59.4968 46.7084 59.3798 46.9738 59.1677C47.2392 58.9556 47.4259 58.6606 47.504 58.33C47.5821 57.9994 47.5472 57.6521 47.4047 57.3436L48.8576 56.6743C49.0302 57.046 49.1274 57.4482 49.1436 57.8577C49.1597 58.2672 49.0945 58.6759 48.9516 59.06Z" fill="black"/>
<path d="M44.2516 50.0912C45.1572 50.4256 46.1415 50.484 47.0803 50.259C48.019 50.0339 48.8699 49.5356 49.5254 48.8269C50.1809 48.1182 50.6116 47.2311 50.7629 46.2777C50.9142 45.3243 50.7794 44.3475 50.3755 43.4707C49.9716 42.5939 49.3168 41.8566 48.4939 41.3519C47.6709 40.8473 46.7168 40.598 45.7522 40.6357C44.7876 40.6733 43.8558 40.9961 43.0747 41.5633C42.2936 42.1305 41.6982 42.9166 41.3638 43.8222C40.917 45.0365 40.9701 46.3785 41.5114 47.5538C42.0528 48.7291 43.0383 49.6416 44.2516 50.0912ZM45.0998 46.7193C45.3693 46.9262 45.7003 47.0369 46.04 47.0336C46.3798 47.0303 46.7086 46.9132 46.974 46.7011C47.2394 46.489 47.426 46.1941 47.5041 45.8634C47.5822 45.5328 47.5473 45.1855 47.4049 44.8771L48.8577 44.2078C49.1493 44.8409 49.2204 45.5535 49.0597 46.2318C48.899 46.9101 48.5158 47.515 47.9712 47.95C47.4266 48.3851 46.7519 48.6252 46.0549 48.6321C45.3579 48.639 44.6786 48.4122 44.1255 47.988L45.0998 46.7193Z" fill="black"/>
<path d="M62.9872 47.2034C63.3467 46.2291 63.3861 45.1656 63.0996 44.1674C62.8131 43.1692 62.2155 42.2884 61.394 41.6532C60.5724 41.018 59.5696 40.6615 58.5314 40.6354C57.4932 40.6094 56.4738 40.9153 55.6214 41.5086C54.7691 42.1018 54.1282 42.9515 53.792 43.9341C53.4559 44.9167 53.4419 45.9809 53.7523 46.972C54.0626 47.963 54.681 48.8293 55.5176 49.4446C56.3541 50.06 57.3651 50.3924 58.4037 50.3936C59.4021 50.3938 60.3766 50.0882 61.1961 49.5178C62.0155 48.9475 62.6406 48.1398 62.9872 47.2034ZM61.4183 46.5936C61.2489 47.0521 60.9741 47.4644 60.6162 47.7973C60.2582 48.1301 59.827 48.3742 59.3574 48.5099C58.8878 48.6456 58.3929 48.6691 57.9126 48.5784C57.4322 48.4877 56.9799 48.2855 56.5921 47.988L57.5665 46.7195C57.836 46.9263 58.167 47.0369 58.5067 47.0336C58.8464 47.0302 59.1751 46.9131 59.4405 46.701C59.7058 46.4889 59.8925 46.194 59.9706 45.8634C60.0487 45.5328 60.0138 45.1856 59.8714 44.8772L61.3243 44.2079C61.4969 44.5796 61.5941 44.9818 61.6102 45.3913C61.6264 45.8008 61.5611 46.2094 61.4183 46.5935V46.5936Z" fill="black"/>
</svg>
