<svg width="95" height="80" viewBox="0 0 95 80" fill="none" xmlns="http://www.w3.org/2000/svg">
<g clip-path="url(#clip0_151_457)">
<path d="M43.5389 46.8735V68.4809C43.5389 71.4819 42.4885 74.0327 40.3878 76.1335C38.2871 78.2342 35.7362 79.2845 32.7352 79.2845H11.1279C8.12687 79.2845 5.576 78.2342 3.47529 76.1335C1.37458 74.0327 0.324219 71.4819 0.324219 68.4809V28.8674C0.324219 24.9661 1.08385 21.2429 2.60312 17.698C4.12238 14.153 6.17621 11.0864 8.76458 8.49798C11.353 5.9096 14.4196 3.85578 17.9646 2.33652C21.5095 0.81725 25.2327 0.0576172 29.134 0.0576172H32.7352C33.7106 0.0576172 34.5546 0.413988 35.2673 1.12673C35.9801 1.83947 36.3364 2.68351 36.3364 3.65884V10.8613C36.3364 11.8366 35.9801 12.6807 35.2673 13.3934C34.5546 14.1061 33.7106 14.4625 32.7352 14.4625H29.134C25.1576 14.4625 21.7627 15.8692 18.9493 18.6827C16.1358 21.4961 14.7291 24.8911 14.7291 28.8674V30.668C14.7291 32.1685 15.2543 33.444 16.3046 34.4943C17.355 35.5447 18.6304 36.0698 20.1309 36.0698H32.7352C35.7362 36.0698 38.2871 37.1202 40.3878 39.2209C42.4885 41.3216 43.5389 43.8725 43.5389 46.8735ZM93.956 46.8735V68.4809C93.956 71.4819 92.9057 74.0327 90.8049 76.1335C88.7042 78.2342 86.1534 79.2845 83.1523 79.2845H61.545C58.544 79.2845 55.9931 78.2342 53.8924 76.1335C51.7917 74.0327 50.7413 71.4819 50.7413 68.4809V28.8674C50.7413 24.9661 51.501 21.2429 53.0202 17.698C54.5395 14.153 56.5933 11.0864 59.1817 8.49798C61.7701 5.9096 64.8367 3.85578 68.3817 2.33652C71.9267 0.81725 75.6498 0.0576172 79.5511 0.0576172H83.1523C84.1277 0.0576172 84.9717 0.413988 85.6844 1.12673C86.3972 1.83947 86.7536 2.68351 86.7536 3.65884V10.8613C86.7536 11.8366 86.3972 12.6807 85.6844 13.3934C84.9717 14.1061 84.1277 14.4625 83.1523 14.4625H79.5511C75.5748 14.4625 72.1799 15.8692 69.3664 18.6827C66.553 21.4961 65.1462 24.8911 65.1462 28.8674V30.668C65.1462 32.1685 65.6714 33.444 66.7218 34.4943C67.7721 35.5447 69.0476 36.0698 70.5481 36.0698H83.1523C86.1534 36.0698 88.7042 37.1202 90.8049 39.2209C92.9057 41.3216 93.956 43.8725 93.956 46.8735Z" fill="#EFFBFF"/>
</g>
<defs>
<clipPath id="clip0_151_457">
<rect width="94.28" height="79.2269" fill="white" transform="translate(0 0.0576172)"/>
</clipPath>
</defs>
</svg>
